<?xml version="1.0" encoding="UTF-8"?>
<svg viewBox="0 0 300 80" xmlns="http://www.w3.org/2000/svg">
  <defs>
    <!-- Olive branch gradient -->
    <linearGradient id="oliveBranchGrad" x1="0%" y1="0%" x2="100%" y2="100%">
      <stop offset="0%" style="stop-color:#2d5016;stop-opacity:1" />
      <stop offset="100%" style="stop-color:#1a3009;stop-opacity:1" />
    </linearGradient>
    
    <!-- Olive fruit gradient -->
    <linearGradient id="oliveGrad" x1="0%" y1="0%" x2="100%" y2="100%">
      <stop offset="0%" style="stop-color:#6b8e23;stop-opacity:1" />
      <stop offset="50%" style="stop-color:#556b2f;stop-opacity:1" />
      <stop offset="100%" style="stop-color:#2f4f2f;stop-opacity:1" />
    </linearGradient>
    
    <!-- Olive highlight -->
    <radialGradient id="oliveHighlight" cx="30%" cy="20%" r="40%">
      <stop offset="0%" style="stop-color:#8fbc8f;stop-opacity:0.8" />
      <stop offset="100%" style="stop-color:#6b8e23;stop-opacity:0" />
    </radialGradient>
    
    <!-- Background shape gradient -->
    <linearGradient id="bgShapeGrad" x1="0%" y1="0%" x2="100%" y2="100%">
      <stop offset="0%" style="stop-color:#f0f8e8;stop-opacity:1" />
      <stop offset="100%" style="stop-color:#e8f5e8;stop-opacity:1" />
    </linearGradient>
  </defs>
  
  <!-- Background shape (map-like contour) -->
  <path d="M15 20 Q25 10 40 15 Q55 8 70 20 Q85 15 100 25 Q105 35 100 45 Q95 55 80 60 Q65 65 50 60 Q35 70 20 65 Q8 60 5 45 Q2 30 5 20 Q8 15 15 20 Z" 
        fill="url(#bgShapeGrad)" 
        stroke="#d4e6d4" 
        stroke-width="0.5"/>
  
  <!-- Olive branch -->
  <path d="M20 25 Q30 20 40 25 Q50 22 60 28 Q70 25 80 30" 
        stroke="url(#oliveBranchGrad)" 
        stroke-width="2" 
        fill="none" 
        stroke-linecap="round"/>
  
  <!-- Left leaf -->
  <path d="M25 22 Q18 18 22 15 Q25 12 32 15 Q28 18 25 22" 
        fill="url(#oliveBranchGrad)" 
        stroke="#1a3009" 
        stroke-width="0.5"/>
  
  <!-- Right leaf -->
  <path d="M75 28 Q68 25 72 22 Q75 20 82 22 Q78 25 75 28" 
        fill="url(#oliveBranchGrad)" 
        stroke="#1a3009" 
        stroke-width="0.5"/>
  
  <!-- First olive -->
  <ellipse cx="35" cy="28" rx="5" ry="8" 
           fill="url(#oliveGrad)" 
           stroke="#2d5016" 
           stroke-width="1"/>
  <ellipse cx="33" cy="26" rx="2.5" ry="4" 
           fill="url(#oliveHighlight)"/>
  
  <!-- Second olive -->
  <ellipse cx="75" cy="33" rx="5" ry="8" 
           fill="url(#oliveGrad)" 
           stroke="#2d5016" 
           stroke-width="1"/>
  <ellipse cx="73" cy="31" rx="2.5" ry="4" 
           fill="url(#oliveHighlight)"/>
  
  <!-- Text: ZATONA WEB -->
  <text x="150" y="50" 
        font-family="serif" 
        font-size="24" 
        font-weight="bold" 
        text-anchor="middle" 
        fill="#2d5016">ZATONA WEB</text>
</svg>
