<?xml version="1.0" encoding="UTF-8"?>
<svg version="1.1" xmlns="http://www.w3.org/2000/svg" width="400" height="400" viewBox="200 300 600 600">
<path d="M0 0 C24.8126523 15.83786317 51.42012987 32.43030242 80.1875 39.92578125 C81.28707031 40.22484375 82.38664063 40.52390625 83.51953125 40.83203125 C102.57370759 45.36974028 123.99506544 44.99829778 141.2578125 35.125 C145.34842346 32.0543147 147.63088914 28.55038515 150.2265625 24.19140625 C155.15525138 15.98347019 161.24733605 7.37491337 169.1875 1.92578125 C172.0625 1.48828125 172.0625 1.48828125 174.1875 1.92578125 C175.87144692 3.60972817 175.63714914 5.54800048 175.8125 7.86328125 C175.78717632 14.38835037 172.98298951 17.08026337 168.515625 21.51953125 C159.46255637 30.87639413 158.75232949 42.4028573 158.74926758 54.75561523 C158.91678372 63.54689166 160.8948528 68.90143468 166.4375 75.67578125 C187.61045668 92.99910945 216.49727892 93.59724185 242.6875 93.05078125 C278.32940139 92.43478806 322.30421829 96.06797246 349.91015625 121.36328125 C353.74915937 125.68298287 355.80083495 129.78154468 355.53125 135.65625 C353.9234091 146.27165411 348.62943614 153.45424209 340.5 160.11328125 C322.43275508 172.80172806 297.15556297 172.8717489 276.0625 170.23828125 C273.76497389 169.83267534 271.47340613 169.39244549 269.1875 168.92578125 C268.50365234 168.7963916 267.81980469 168.66700195 267.11523438 168.53369141 C249.09199581 165.08118791 231.60762441 159.39761513 214.090271 154.01567078 C209.22701771 152.52655416 204.34900564 151.12711246 199.4453125 149.77734375 C181.25834878 144.61535412 167.15879738 132.93129629 157.1875 116.92578125 C148.83892202 101.08911469 147.00418623 84.52741888 147.125 66.92578125 C147.12951172 65.67410156 147.13402344 64.42242187 147.13867188 63.1328125 C147.15038585 60.06375184 147.16678927 56.99479218 147.1875 53.92578125 C139.12072054 69.51888596 133.29845027 84.84983209 129.1875 101.92578125 C128.93742187 102.92480469 128.68734375 103.92382812 128.4296875 104.953125 C125.43874861 118.6229795 125.70919593 133.31447816 132.73046875 145.6328125 C147.24116088 167.78071101 177.46596718 177.05713967 200.77197266 186.90234375 C234.91029073 201.36644617 270.14069385 217.18912447 298.1875 241.92578125 C298.96480469 242.60769531 299.74210937 243.28960938 300.54296875 243.9921875 C310.94561043 253.71444986 319.88549702 267.243212 320.6875 281.80078125 C320.45421209 286.10105501 319.06637012 288.66811243 316.1875 291.92578125 C309.25059217 297.16385451 303.65948878 297.58533301 295.1875 296.92578125 C277.8843291 293.77155739 261.60691171 287.24325663 246.1875 278.92578125 C245.59372559 278.60883301 244.99995117 278.29188477 244.38818359 277.96533203 C234.49706515 272.64613285 225.30873482 266.45344511 216.1875 259.92578125 C215.51928223 259.45124512 214.85106445 258.97670898 214.16259766 258.48779297 C204.43066254 251.53910182 195.53338322 244.00371985 186.96923828 235.66064453 C185.23886873 233.97579854 183.49345791 232.30781186 181.74609375 230.640625 C174.72400767 223.86613552 168.53807884 216.72179646 162.68896484 208.91894531 C161.07732478 206.77952588 159.44022819 204.6611434 157.80078125 202.54296875 C150.37005738 192.87070828 143.38274966 182.94951265 136.625 172.80078125 C136.24568329 172.23187164 135.86636658 171.66296204 135.47555542 171.07681274 C130.85694432 164.13451591 126.40105031 157.1215247 122.1875 149.92578125 C120.96763961 156.5901923 121.0432962 163.18570747 121.0546875 169.9453125 C121.05373077 171.19906174 121.05277405 172.45281097 121.05178833 173.74455261 C121.05110928 176.39134201 121.0524374 179.03803841 121.05712891 181.68481445 C121.06168033 184.38177698 121.06170349 187.07867229 121.05712891 189.77563477 C121.05091644 193.68638082 121.05171005 197.59706368 121.0546875 201.5078125 C121.05165115 203.30047295 121.05165115 203.30047295 121.04855347 205.12934875 C121.06507019 211.09149063 121.26355044 216.93507066 121.96388245 222.85829163 C122.27782354 225.76088105 122.28391814 228.6338209 122.25 231.55078125 C122.24097656 232.57429688 122.23195313 233.5978125 122.22265625 234.65234375 C122.20525391 235.77769531 122.20525391 235.77769531 122.1875 236.92578125 C122.78433594 236.93996094 123.38117188 236.95414063 123.99609375 236.96875 C142.82260216 238.00378835 158.9153048 245.87926951 173.1875 257.92578125 C173.83847656 258.43238281 174.48945312 258.93898438 175.16015625 259.4609375 C196.0312983 276.34872043 207.01053455 304.75974614 210.01098633 330.73071289 C212.73207706 364.56933914 205.17744189 400.10164645 182.82958984 426.53173828 C179.71692115 430.09661066 176.46993813 433.51748276 173.1875 436.92578125 C172.29804687 437.90998047 172.29804687 437.90998047 171.390625 438.9140625 C157.46553051 453.90766671 134.57416396 464.89912126 114.18994141 466.1027832 C87.65410285 466.61886065 67.22426481 462.96354444 46.1875 445.92578125 C45.42179688 445.32378906 44.65609375 444.72179687 43.8671875 444.1015625 C26.90677236 430.00728023 16.67794861 409.18691773 12.1875 387.92578125 C12.00203613 387.10231201 11.81657227 386.27884277 11.62548828 385.43041992 C10.08548573 377.99520092 9.95194112 370.81156458 10.0625 363.23828125 C10.07152344 362.04783203 10.08054687 360.85738281 10.08984375 359.63085938 C10.11315228 356.72894758 10.14586877 353.82747808 10.1875 350.92578125 C9.4140625 351.25989014 8.640625 351.59399902 7.84375 351.93823242 C-15.16789621 361.72992996 -39.58106452 363.31982309 -63.2734375 354.3125 C-67.22007761 352.69825502 -71.01445435 350.86321128 -74.8125 348.92578125 C-76.19308594 348.23355469 -76.19308594 348.23355469 -77.6015625 347.52734375 C-84.96481079 343.48340104 -90.86684818 337.77023048 -96.8125 331.92578125 C-97.81990234 330.97251953 -97.81990234 330.97251953 -98.84765625 330 C-106.65693624 321.9772545 -112.06398248 309.69253034 -114.8125 298.92578125 C-115.01488281 298.22324219 -115.21726562 297.52070312 -115.42578125 296.796875 C-121.96092557 270.52292741 -112.2911115 242.02655375 -98.8359375 219.63671875 C-80.57598931 191.48293409 -53.58520903 168.74122514 -20.8125 159.92578125 C-19.63171875 159.60738281 -18.4509375 159.28898438 -17.234375 158.9609375 C-8.67820804 157.018795 -0.32802156 156.65117882 8.4375 156.61328125 C10.05265503 156.60494263 10.05265503 156.60494263 11.70043945 156.59643555 C21.90876484 156.68783939 31.53784305 158.07293434 41.1875 161.42578125 C42.425 161.84859375 43.6625 162.27140625 44.9375 162.70703125 C48.1875 163.92578125 48.1875 163.92578125 50.375 165.14453125 C52.76914451 166.17649009 53.764741 165.81725521 56.1875 164.92578125 C57.65625701 163.50128593 57.65625701 163.50128593 58.8671875 161.61328125 C59.3734668 160.88302734 59.87974609 160.15277344 60.40136719 159.40039062 C60.94954102 158.58376953 61.49771484 157.76714844 62.0625 156.92578125 C62.64676758 156.07306641 63.23103516 155.22035156 63.83300781 154.34179688 C65.55732253 151.81350184 67.26861431 149.27693374 68.9732666 146.73535156 C70.29991689 144.75824652 71.62982286 142.78335385 72.95996094 140.80859375 C75.95960852 136.35242274 78.95071137 131.89057967 81.9375 127.42578125 C82.4307074 126.6889209 82.92391479 125.95206055 83.43206787 125.19287109 C84.84817167 123.07446425 86.26067195 120.95370511 87.671875 118.83203125 C88.09838348 118.19422729 88.52489197 117.55642334 88.96432495 116.89929199 C90.89724858 113.98482442 92.73035733 111.10968755 94.1875 107.92578125 C93.66019287 108.24740234 93.13288574 108.56902344 92.58959961 108.90039062 C86.48064875 112.61813305 80.34642942 116.29142633 74.1875 119.92578125 C73.52202148 120.31926758 72.85654297 120.71275391 72.17089844 121.11816406 C53.92523276 131.76398222 33.61182768 138.81584277 13.1875 143.92578125 C11.888125 144.25570068 11.888125 144.25570068 10.5625 144.59228516 C-4.41606594 148.34518688 -19.52030119 150.84597065 -34.8125 152.92578125 C-36.39949707 153.15442871 -36.39949707 153.15442871 -38.01855469 153.38769531 C-53.52285817 155.5836245 -68.86381799 156.23266623 -84.5 156.30078125 C-85.38469971 156.30863647 -86.26939941 156.3164917 -87.1809082 156.32458496 C-109.79381162 156.48122478 -133.82074935 153.53135575 -150.8125 136.92578125 C-156.79259066 128.93316008 -159.95282064 123.08762594 -158.8125 112.92578125 C-156.60069003 105.93275333 -150.89645296 101.71942747 -144.796875 98.171875 C-133.99015662 92.66140076 -122.66804765 90.20139622 -110.8125 87.92578125 C-109.29462891 87.62027344 -109.29462891 87.62027344 -107.74609375 87.30859375 C-80.90740177 83.806341 -52.10567926 89.71940527 -25.4375 92.92578125 C-24.34153503 93.05714478 -23.24557007 93.1885083 -22.11639404 93.32385254 C-1.85736628 95.75525076 -1.85736628 95.75525076 6.765625 96.98046875 C19.77072098 98.78383666 32.63733485 99.23139889 45.75 99.30078125 C46.59258362 99.30881775 47.43516724 99.31685425 48.30328369 99.32513428 C68.04887575 99.46864897 91.84140582 97.70316635 107.34765625 84.01953125 C120.9912113 70.40786517 120.9912113 70.40786517 129.1875 54.92578125 C128.38570312 55.43367188 127.58390625 55.9415625 126.7578125 56.46484375 C104.66010421 70.01488886 80.27546351 73.15483219 54.8125 73.17578125 C53.96401489 73.17678833 53.11552979 73.17779541 52.24133301 73.17883301 C39.63620172 73.16871032 27.54086189 72.60673568 15.1875 69.92578125 C13.65773881 69.62015764 12.12778684 69.31548756 10.59765625 69.01171875 C6.09960011 68.09049324 1.63998005 67.04571783 -2.8125 65.92578125 C-3.49844238 65.75353027 -4.18438477 65.5812793 -4.89111328 65.40380859 C-33.67811736 57.97910619 -61.07615372 44.08562362 -83.8125 24.92578125 C-84.64652344 24.23871094 -85.48054688 23.55164063 -86.33984375 22.84375 C-96.58876747 14.07926207 -105.51983821 3.63446365 -107.18359375 -10.1484375 C-107.4490767 -16.56025302 -106.89533522 -21.95066082 -102.8125 -27.07421875 C-75.48083477 -53.63514288 -24.07960306 -15.39134168 0 0 Z " fill="#3F5B13" transform="translate(394.8125,415.07421875)"/>
<path d="M0 0 C3.12811634 3.71595029 5.63997192 7.61985399 8.0625 11.8125 C22.59290392 36.4205887 40.21119574 60.35542781 60 81 C60.75385986 81.79470703 60.75385986 81.79470703 61.52294922 82.60546875 C68.90497046 90.35325545 76.63530536 97.25802976 85.20849609 103.66162109 C86.99820456 104.99865868 88.77459731 106.35209983 90.55078125 107.70703125 C108.48355896 121.25424666 127.44393006 132.21970882 148.20703125 140.7734375 C151 142 151 142 154 144 C153.25234375 144.96679688 152.5046875 145.93359375 151.734375 146.9296875 C142.70336144 158.77917123 137.46901468 167.52413638 139 183 C140.57631956 190.2465338 144.52267828 194.79054332 150.0625 199.4375 C154.97585641 203.70123201 157.09292111 207.3308686 157.5625 213.875 C157.81828599 218.57216096 155.78939751 221.42401152 152.96850586 224.97460938 C149.33836172 228.70965536 144.9572221 231.17782201 140.5 233.8125 C121.28799799 245.39351291 121.28799799 245.39351291 108 263 C107.57063058 270.60882556 107.67028545 277.71964202 110 285 C109.175 285.13535156 108.35 285.27070312 107.5 285.41015625 C89.8895223 288.69246627 70.11881632 296.68116975 59.5 311.75 C58.32424415 313.49390633 57.15772607 315.24407248 56 317 C49.86727568 326.24605483 45.14501433 332.31540798 34 335 C30.57308737 335.33629363 27.20090786 335.28294991 23.76171875 335.1875 C22.80086868 335.17614014 21.84001862 335.16478027 20.85005188 335.15307617 C16.78876581 335.10475028 12.72843406 335.02120749 8.66772461 334.93847656 C-5.22930373 334.68043255 -18.33033959 335.4451062 -32 338 C-33.07145264 338.18852539 -34.14290527 338.37705078 -35.24682617 338.57128906 C-60.4673254 343.20173013 -84.60951 351.64526515 -108 362 C-110.38327565 363.04704966 -112.76702003 364.09301934 -115.15112305 365.13818359 C-116.49731081 365.73102608 -117.84143234 366.328596 -119.18286133 366.93212891 C-126.12949383 370.03421083 -132.38714135 370.96243472 -140 370 C-150.89860016 365.73152739 -158.5762391 353.85288389 -165.0859375 344.671875 C-168.21595536 340.30262557 -171.57893513 336.14348869 -175 332 C-175.4223291 331.48598633 -175.8446582 330.97197266 -176.27978516 330.44238281 C-185.98531378 318.68462971 -196.46348628 307.44571849 -208.125 297.59375 C-210.40383378 295.65674129 -212.60324657 293.64094375 -214.8125 291.625 C-218.35424463 288.41068939 -221.99439486 285.39816023 -225.75 282.4375 C-233.95091234 275.75398811 -239.14311756 268.81772993 -240.31640625 258.11328125 C-240.75919177 246.95794292 -236.32393341 239.2985887 -230.73828125 229.9453125 C-221.64836053 214.54351424 -218.10689875 199.53108311 -222.5 181.875 C-222.97757951 180.24327 -223.46805741 178.61482571 -224 177 C-223.360625 177.639375 -222.72125 178.27875 -222.0625 178.9375 C-221.60359375 179.39253906 -221.1446875 179.84757813 -220.671875 180.31640625 C-219.43777241 181.5591591 -218.22159705 182.81977476 -217.015625 184.08984375 C-202.88988558 198.74154155 -185.77062026 206.31253974 -166 210 C-165.0409375 210.19078125 -164.081875 210.3815625 -163.09375 210.578125 C-144.26320933 213.145926 -127.29248917 209.21000259 -110 202 C-110.02356567 203.10118164 -110.02356567 203.10118164 -110.04760742 204.22460938 C-110.49086719 224.80666282 -110.49086719 224.80666282 -107 245 C-106.50693359 246.83111328 -106.50693359 246.83111328 -106.00390625 248.69921875 C-101.71499426 262.90160204 -94.82215382 275.86540322 -85 287 C-84.54625 287.59554688 -84.0925 288.19109375 -83.625 288.8046875 C-72.04527631 303.7618306 -50.58046874 314.60512657 -32 317 C-27.3917849 317.28954706 -22.80375187 317.32496962 -18.1875 317.3125 C-17.00607422 317.32861328 -15.82464844 317.34472656 -14.60742188 317.36132812 C8.34149308 317.37390287 31.24631042 307.56986512 48 292 C48.91136719 291.16855469 49.82273437 290.33710937 50.76171875 289.48046875 C65.82415107 275.13229403 75.20923632 257.52040311 82 238 C82.36996094 236.96617187 82.73992187 235.93234375 83.12109375 234.8671875 C92.95214991 205.554075 89.82613526 170.4582675 76.25 142.8125 C64.92993243 120.654471 47.6231753 102.09082766 23.53125 94.19042969 C16.10526549 91.98584054 8.64569665 90.23702437 1 89 C-0.83245982 72.99167257 -1.28477721 57.16056542 -1.20581055 41.05444336 C-1.18731087 37.14755849 -1.18530335 33.24090895 -1.18554688 29.33398438 C-1.1806382 26.82031046 -1.17481274 24.30663814 -1.16796875 21.79296875 C-1.16685593 20.63975632 -1.1657431 19.48654388 -1.16459656 18.29838562 C-1.12840828 12.11835816 -0.81061986 6.12796268 0 0 Z " fill="#D1D29E" transform="translate(516,563)"/>
<path d="M0 0 C0.886875 0.78375 1.77375 1.5675 2.6875 2.375 C23.79744281 20.36067128 47.60591126 34.35984001 74 43 C75.02609375 43.33773437 76.0521875 43.67546875 77.109375 44.0234375 C97.72731662 50.18442006 117.93011193 49.35950272 138 42.25 C147.72294157 39.24170526 159.49216907 39.75892388 168.77734375 43.8203125 C175.47766414 47.37654582 178.30971625 51.77415017 182.20703125 58.140625 C188.20812378 67.84442344 188.20812378 67.84442344 197.71484375 73.54296875 C208.47721071 75.69544214 219.54870705 73.65150297 230.10888672 71.4230957 C242.17362176 68.94139054 250.40535087 69.91057354 261.25 75.75 C268.36447765 81.57093626 272.30459179 88.73274084 273.31640625 97.8515625 C273.81636267 110.33434548 269.01409132 119.67325579 261 129 C254.99811886 135.22744204 248.54731217 139.84722854 241 144 C240.21753906 144.47953125 239.43507813 144.9590625 238.62890625 145.453125 C232.14167564 149.29890914 225.42324089 151.71119659 218.31762695 154.11523438 C185.51818588 165.27638548 152.11024299 178.15899428 132 208 C130.8125 207.20833333 129.625 206.41666667 128.4375 205.625 C127.60605469 205.07328125 126.77460937 204.5215625 125.91796875 203.953125 C123.86934281 202.58188943 121.83111447 201.19505319 119.80078125 199.796875 C93.68888597 181.89315712 64.70576533 167.8825529 35.41015625 155.99267578 C-21.18662118 132.68205007 -21.18662118 132.68205007 -31.95703125 110.58984375 C-40.58771313 89.15859997 -32.51301962 62.55942108 -23.9765625 42.22705078 C-16.75244045 25.75244045 -16.75244045 25.75244045 -13 22 C-13.01571045 22.7842334 -13.0314209 23.5684668 -13.04760742 24.37646484 C-13.54702933 53.15749643 -12.25243867 79.46615068 8.5625 101.65234375 C22.0585655 114.65095812 38.847743 119.46610096 56.375 124.5 C58.35088298 125.0748153 60.3266311 125.65009438 62.30224609 126.22583008 C117.96296082 142.95284412 117.96296082 142.95284412 173.8359375 132.7890625 C183.2182593 127.48399659 189.57194315 120.36330693 192.59765625 109.94140625 C193.69323881 104.65495447 193.70742471 100.61643867 191 95.9375 C177.87804287 77.39324653 150.91621173 71.62427696 129.89746094 67.38623047 C128.28466324 67.05794355 126.67683835 66.705376 125.0703125 66.34765625 C115.05346922 64.1554717 104.95264689 63.85377138 94.734375 64.04296875 C92.60417629 64.06538655 90.47396723 64.08683867 88.34375 64.10742188 C85.06675697 64.14410826 81.79032432 64.1867608 78.51367188 64.24682617 C54.67169743 64.66120171 25.39776052 63.8529921 6 48 C-1.40488063 40.2910175 -3.52435011 32.69206184 -3.375 22.25 C-3.36919922 21.27659668 -3.36339844 20.30319336 -3.35742188 19.30029297 C-3.23524618 12.54103587 -2.54297727 6.32716964 0 0 Z " fill="#D1D29E" transform="translate(556,445)"/>
<path d="M0 0 C2 2 2 2 2.375 5.25 C1.93120611 9.68793891 0.81317686 11.57856868 -2 15 C-2.9075 15.598125 -3.815 16.19625 -4.75 16.8125 C-7.30864211 19.30006872 -7.43019417 19.94297958 -7.625 23.375 C-7.35086752 28.41737626 -5.60026765 30.56718666 -2 34 C3.13899898 37.42599932 9.98394913 36.82705689 16 36 C19.2555794 34.9185749 22.24281567 33.59158537 25.34375 32.1328125 C29.32001101 30.43705413 31.7356634 30.25187077 36 31 C41.10004643 34.51336532 42.60111366 39.20556878 44 45 C44.37348547 48.45079059 44.38467031 51.84482766 44.3125 55.3125 C44.29614502 56.23313232 44.27979004 57.15376465 44.26293945 58.10229492 C44.19869713 60.73623 44.10182297 63.36729897 44 66 C43.97679687 67.2375 43.95359375 68.475 43.9296875 69.75 C43.58286615 74.13561193 43.15003708 76.89725417 39.91015625 80.00390625 C38.06165446 81.30410061 36.17792972 82.55505507 34.26953125 83.765625 C15.30608917 96.72510991 2.30060015 118.80417767 -5.86328125 139.78515625 C-7.97147857 144.57982646 -10.94919175 146.8864169 -15.3125 149.625 C-16.01890625 150.08519531 -16.7253125 150.54539062 -17.453125 151.01953125 C-35.8377004 162.7188065 -54.40360002 167.55904071 -76.3125 164 C-94.54100205 159.90711389 -109.89482176 149.92987883 -120 134 C-130.23647633 115.71456831 -129.7720735 96.53432364 -124.48828125 76.8984375 C-122.64640363 70.5643237 -120.11889429 64.82086698 -117 59 C-116.55011719 58.08476563 -116.10023438 57.16953125 -115.63671875 56.2265625 C-102.58972372 30.57359762 -78.05150663 9.76680886 -50.9921875 0.29736328 C-35.9623786 -4.58657612 -14.42886028 -8.44766606 0 0 Z " fill="#A7B745" transform="translate(421,591)"/>
<path d="M0 0 C1.86654707 3.3088789 1.71522038 5.69507582 1.375 9.4375 C1.045 10.4275 0.715 11.4175 0.375 12.4375 C-0.12012013 17.17023486 -0.12012013 17.17023486 1.75 21.3125 C5.79184732 24.11070199 9.5921648 23.96892613 14.375 23.4375 C19.52331722 21.89212176 23.68187385 19.26479003 28 16.125 C31.12970326 13.98047289 32.1392137 13.44948913 36.0625 13.25 C46.35173498 16.93859367 50.43027769 27.36590762 54.890625 36.5625 C66.09445154 61.93984204 65.48975587 93.23289842 55.73046875 118.9375 C46.55073452 141.5367943 32.05748442 160.80573756 9.33447266 170.68505859 C-3.41741817 175.58181009 -17.03677664 174.10399634 -29.625 169.4375 C-41.5997321 163.75906439 -48.39145281 154.45788494 -54.66796875 143.16015625 C-56.80921759 140.18121326 -58.1408383 139.39429052 -61.625 138.4375 C-59.68351132 151.6749228 -57.69210098 164.14824154 -50.48046875 175.6953125 C-50.19816406 176.27023437 -49.91585937 176.84515625 -49.625 177.4375 C-49.955 178.0975 -50.285 178.7575 -50.625 179.4375 C-70.8534087 161.49095447 -83.23732017 142.0284669 -85.625 114.4375 C-86.284778 103.04764816 -85.02249452 92.55238628 -82.625 81.4375 C-82.39683594 80.3546875 -82.16867187 79.271875 -81.93359375 78.15625 C-77.75681293 60.0170876 -69.50242185 42.74764681 -57.625 28.4375 C-56.92761719 27.57640625 -56.23023438 26.7153125 -55.51171875 25.828125 C-45.33192914 13.84314418 -17.04506905 -10.14587443 0 0 Z " fill="#A6B745" transform="translate(505.625,673.5625)"/>
<path d="M0 0 C0.75220636 -0.0069029 1.50441273 -0.01380581 2.27941322 -0.02091789 C6.25032316 -0.0564806 10.22109593 -0.08017038 14.19213867 -0.09399414 C18.27112615 -0.11062059 22.34840418 -0.16923402 26.42681408 -0.23713779 C29.58828114 -0.28202848 32.74933819 -0.29549518 35.91109657 -0.3006115 C37.41457151 -0.30846339 38.91803611 -0.32798094 40.42119408 -0.35983467 C53.568813 -0.62039814 53.568813 -0.62039814 58.65307617 3.82666016 C59.74411063 5.02203154 60.82546898 6.22634461 61.89453125 7.44140625 C64.19118057 9.21132613 66.59029435 10.79713878 69.01953125 12.37890625 C69.66857422 12.80365234 70.31761719 13.22839844 70.98632812 13.66601562 C99.81249607 32.35119932 131.96983497 43.65503663 165.89453125 48.44140625 C167.12429688 48.61559082 168.3540625 48.78977539 169.62109375 48.96923828 C173.8980764 49.49606949 178.12018767 49.60289773 182.42578125 49.609375 C183.2199646 49.6127034 184.01414795 49.6160318 184.83239746 49.61946106 C186.50642321 49.62449429 188.18045888 49.62687051 189.85449219 49.62670898 C192.36020391 49.62887656 194.86546073 49.6470186 197.37109375 49.66601562 C211.32949449 49.71670198 224.92764171 48.80494715 238.39453125 44.81640625 C239.27109375 44.56205811 240.14765625 44.30770996 241.05078125 44.0456543 C251.37836546 40.89803029 260.7045682 36.06329652 269.89453125 30.44140625 C268.60106315 33.17623173 267.17496056 35.56577261 265.35546875 37.98046875 C264.86135498 38.63869629 264.36724121 39.29692383 263.8581543 39.97509766 C263.07178589 41.01029541 263.07178589 41.01029541 262.26953125 42.06640625 C261.46092651 43.1344751 261.46092651 43.1344751 260.63598633 44.22412109 C259.05993157 46.29996936 257.47781901 48.37107247 255.89453125 50.44140625 C255.12753906 51.45203125 254.36054688 52.46265625 253.5703125 53.50390625 C241.97443524 68.44869108 226.60976227 74.37242048 208.13696289 76.96972656 C178.21260291 80.57824789 147.61598692 76.02603041 117.97070312 72.2109375 C109.29026421 71.10029051 100.59406415 70.13860772 91.89453125 69.19140625 C90.42528679 69.03065547 88.95604836 68.86984949 87.48681641 68.70898438 C84.80480971 68.41551346 82.12266802 68.12338829 79.44042969 67.83203125 C76.30095344 67.48617873 73.16405229 67.12383748 70.02734375 66.75390625 C41.97852596 63.52819951 12.305768 64.51091251 -12.10546875 80.44140625 C-15.38234847 83.38576128 -17.69182057 86.2004617 -19.10546875 90.44140625 C-19.17445975 92.50285732 -19.19014602 94.56642026 -19.16796875 96.62890625 C-19.15894531 97.71558594 -19.14992187 98.80226563 -19.140625 99.921875 C-19.12902344 100.75332031 -19.11742187 101.58476563 -19.10546875 102.44140625 C-20.28867451 103.07449816 -21.47734723 103.69737343 -22.66796875 104.31640625 C-23.32925781 104.66445313 -23.99054688 105.0125 -24.671875 105.37109375 C-30.47368134 107.92277102 -35.6649772 108.69768883 -41.98046875 108.62890625 C-43.29789063 108.62246094 -44.6153125 108.61601563 -45.97265625 108.609375 C-49.10546875 108.44140625 -49.10546875 108.44140625 -50.10546875 107.44140625 C-50.5288488 103.94852087 -49.95296831 102.06650932 -48.60546875 98.75390625 C-46.35614269 92.96157242 -46.07035915 87.47440516 -48.09423828 81.54418945 C-49.45233458 78.46181123 -50.90401748 75.45021734 -52.41796875 72.44140625 C-59.40143969 58.24018018 -64.66969504 44.4343153 -59.60546875 28.56640625 C-54.72478256 17.24049334 -46.42780475 10.19646309 -35.34375 5.1953125 C-23.8289039 0.71092879 -12.23237843 0.08797373 0 0 Z " fill="#D1D29E" transform="translate(256.10546875,437.55859375)"/>
</svg>