<?xml version="1.0" encoding="UTF-8"?>
<svg width="200" height="80" viewBox="0 0 200 80" xmlns="http://www.w3.org/2000/svg">
  <!-- Horizontal olive branch design -->
  
  <!-- Main horizontal stem -->
  <path d="M 20 40 L 180 40" 
        stroke="#6b8e23" 
        stroke-width="4" 
        fill="none" 
        stroke-linecap="round"/>
  
  <!-- Vertical branches -->
  <path d="M 60 40 Q 60 20 50 10" 
        stroke="#6b8e23" 
        stroke-width="3" 
        fill="none" 
        stroke-linecap="round"/>
  
  <path d="M 60 40 Q 60 60 50 70" 
        stroke="#6b8e23" 
        stroke-width="3" 
        fill="none" 
        stroke-linecap="round"/>
  
  <path d="M 140 40 Q 140 20 150 10" 
        stroke="#6b8e23" 
        stroke-width="3" 
        fill="none" 
        stroke-linecap="round"/>
  
  <path d="M 140 40 Q 140 60 150 70" 
        stroke="#6b8e23" 
        stroke-width="3" 
        fill="none" 
        stroke-linecap="round"/>
  
  <!-- Olive leaves -->
  <g>
    <!-- Left side leaves -->
    <ellipse cx="45" cy="25" rx="6" ry="12" fill="#6b8e23" transform="rotate(-30 45 25)"/>
    <ellipse cx="45" cy="55" rx="6" ry="12" fill="#6b8e23" transform="rotate(30 45 55)"/>
    
    <!-- Right side leaves -->
    <ellipse cx="155" cy="25" rx="6" ry="12" fill="#6b8e23" transform="rotate(30 155 25)"/>
    <ellipse cx="155" cy="55" rx="6" ry="12" fill="#6b8e23" transform="rotate(-30 155 55)"/>
  </g>
  
  <!-- Olive fruits -->
  <circle cx="60" cy="40" r="3" fill="#556b2f"/>
  <circle cx="140" cy="40" r="3" fill="#556b2f"/>
  
  <!-- Center "Z" -->
  <text x="100" y="50" 
        font-family="Arial, sans-serif" 
        font-size="16" 
        font-weight="bold" 
        text-anchor="middle" 
        fill="#6b8e23">Z</text>
</svg>
