<?xml version="1.0" encoding="UTF-8"?>
<svg viewBox="0 0 200 200" xmlns="http://www.w3.org/2000/svg">
  <defs>
    <!-- Olive branch gradient -->
    <linearGradient id="oliveBranchGrad" x1="0%" y1="0%" x2="100%" y2="100%">
      <stop offset="0%" style="stop-color:#2d5016;stop-opacity:1" />
      <stop offset="100%" style="stop-color:#1a3009;stop-opacity:1" />
    </linearGradient>
    
    <!-- Olive fruit gradient -->
    <linearGradient id="oliveGrad" x1="0%" y1="0%" x2="100%" y2="100%">
      <stop offset="0%" style="stop-color:#6b8e23;stop-opacity:1" />
      <stop offset="50%" style="stop-color:#556b2f;stop-opacity:1" />
      <stop offset="100%" style="stop-color:#2f4f2f;stop-opacity:1" />
    </linearGradient>
    
    <!-- Olive highlight -->
    <radialGradient id="oliveHighlight" cx="30%" cy="20%" r="40%">
      <stop offset="0%" style="stop-color:#8fbc8f;stop-opacity:0.8" />
      <stop offset="100%" style="stop-color:#6b8e23;stop-opacity:0" />
    </radialGradient>
    
    <!-- Background shape gradient -->
    <linearGradient id="bgShapeGrad" x1="0%" y1="0%" x2="100%" y2="100%">
      <stop offset="0%" style="stop-color:#f0f8e8;stop-opacity:1" />
      <stop offset="100%" style="stop-color:#e8f5e8;stop-opacity:1" />
    </linearGradient>
  </defs>
  
  <!-- Background shape (map-like contour) -->
  <path d="M20 40 Q30 20 50 25 Q70 15 90 30 Q110 20 130 35 Q150 25 170 40 Q175 60 170 80 Q165 100 150 110 Q130 120 110 115 Q90 125 70 120 Q50 130 30 125 Q15 120 10 100 Q5 80 10 60 Q15 45 20 40 Z" 
        fill="url(#bgShapeGrad)" 
        stroke="#d4e6d4" 
        stroke-width="1"/>
  
  <!-- Olive branch -->
  <path d="M30 50 Q45 40 60 50 Q75 45 90 55 Q105 50 120 60" 
        stroke="url(#oliveBranchGrad)" 
        stroke-width="3" 
        fill="none" 
        stroke-linecap="round"/>
  
  <!-- Left leaf -->
  <path d="M35 45 Q25 40 30 35 Q35 30 45 35 Q40 40 35 45" 
        fill="url(#oliveBranchGrad)" 
        stroke="#1a3009" 
        stroke-width="1"/>
  
  <!-- Right leaf -->
  <path d="M85 50 Q75 45 80 40 Q85 35 95 40 Q90 45 85 50" 
        fill="url(#oliveBranchGrad)" 
        stroke="#1a3009" 
        stroke-width="1"/>
  
  <!-- First olive -->
  <ellipse cx="50" cy="55" rx="8" ry="12" 
           fill="url(#oliveGrad)" 
           stroke="#2d5016" 
           stroke-width="1.5"/>
  <ellipse cx="48" cy="52" rx="4" ry="6" 
           fill="url(#oliveHighlight)"/>
  
  <!-- Second olive -->
  <ellipse cx="110" cy="65" rx="8" ry="12" 
           fill="url(#oliveGrad)" 
           stroke="#2d5016" 
           stroke-width="1.5"/>
  <ellipse cx="108" cy="62" rx="4" ry="6" 
           fill="url(#oliveHighlight)"/>
  
  <!-- Text: ZATONA WEB -->
  <text x="100" y="160" 
        font-family="serif" 
        font-size="18" 
        font-weight="bold" 
        text-anchor="middle" 
        fill="#2d5016">ZATONA WEB</text>
</svg>